{
  "asset": {
    "version": "2.0",
    "generator": "3dpea GLTFExporter"
  },
  "scenes": [
    {
      "name": "AuxScene",
      "nodes": [
        10
      ]
    }
  ],
  "scene": 0,
  "nodes": [
    {
      "rotation": [
        0.2317468374967575,
        -0.35347050428390503,
        0.18578316271305084,
        0.8870381116867065
      ],
      "translation": [
        0.020754842087626457,
        0.02228475734591484,
        0.03440643846988678
      ],
      "scale": [
        0.8010990023612976,
        0.8010990023612976,
        0.8010991811752319
      ],
      "name": "Sphere001",
      "extras": {
        "name": "Sphere.001"
      },
      "mesh": 0
    },
    {
      "rotation": [
        0.17022523283958435,
        0.2759500741958618,
        0.3295469880104065,
        0.8867207765579224
      ],
      "scale": [
        0.8627830743789673,
        0.8627830147743225,
        0.8627831339836121
      ],
      "name": "Sphere004",
      "extras": {
        "name": "Sphere.004"
      },
      "mesh": 1
    },
    {
      "rotation": [
        0.661645233631134,
        -0.48680585622787476,
        0.26637178659439087,
        0.5042734742164612
      ],
      "translation": [
        -0.8462666869163513,
        -0.058306217193603516,
        0.29871875047683716
      ],
      "scale": [
        0.2626088261604309,
        0.2626088261604309,
        0.2626088857650757
      ],
      "name": "Text",
      "extras": {
        "name": "Text"
      },
      "mesh": 2
    },
    {
      "rotation": [
        0.6626048684120178,
        -0.42159393429756165,
        0.3476560115814209,
        0.5121998190879822
      ],
      "translation": [
        -0.7972368001937866,
        -0.10731308162212372,
        0.4063299596309662
      ],
      "scale": [
        0.2626088261604309,
        0.2626088261604309,
        0.2626088559627533
      ],
      "name": "Text001",
      "extras": {
        "name": "Text.001"
      },
      "mesh": 3
    },
    {
      "rotation": [
        0.7060558795928955,
        -0.3536719083786011,
        0.33282774686813354,
        0.5153900980949402
      ],
      "translation": [
        -0.7411623597145081,
        -0.13215772807598114,
        0.49196040630340576
      ],
      "scale": [
        0.2626088261604309,
        0.2626088261604309,
        0.2626088857650757
      ],
      "name": "Text002",
      "extras": {
        "name": "Text.002"
      },
      "mesh": 4
    },
    {
      "rotation": [
        0.7132436037063599,
        -0.29689905047416687,
        0.2854773998260498,
        0.5671306848526001
      ],
      "translation": [
        -0.6679561734199524,
        -0.14521977305412292,
        0.5837604403495789
      ],
      "scale": [
        0.2626087963581085,
        0.2626087963581085,
        0.2626088559627533
      ],
      "name": "Text003",
      "extras": {
        "name": "Text.003"
      },
      "mesh": 5
    },
    {
      "rotation": [
        0.7519464492797852,
        -0.21768389642238617,
        0.24879251420497894,
        0.5703442096710205
      ],
      "translation": [
        -0.5826601386070251,
        -0.15211032330989838,
        0.6679450273513794
      ],
      "scale": [
        0.2626088261604309,
        0.26260876655578613,
        0.2626088559627533
      ],
      "name": "Text004",
      "extras": {
        "name": "Text.004"
      },
      "mesh": 6
    },
    {
      "rotation": [
        0.7508451342582703,
        -0.12573762238025665,
        0.23347507417201996,
        0.6049060225486755
      ],
      "translation": [
        -0.4932989180088043,
        -0.14894962310791016,
        0.737952470779419
      ],
      "scale": [
        0.2626088559627533,
        0.2626088261604309,
        0.2626088559627533
      ],
      "name": "Text005",
      "extras": {
        "name": "Text.005"
      },
      "mesh": 7
    },
    {
      "rotation": [
        0.7525783777236938,
        -0.13027991354465485,
        0.22782593965530396,
        0.603943943977356
      ],
      "translation": [
        -0.3949323296546936,
        -0.13421756029129028,
        0.7966142892837524
      ],
      "scale": [
        0.2626088559627533,
        0.2626087963581085,
        0.2626088559627533
      ],
      "name": "Text006",
      "extras": {
        "name": "Text.006"
      },
      "mesh": 8
    },
    {
      "scale": [
        1.17503023147583,
        1.17503023147583,
        1.17503023147583
      ],
      "name": "Empty",
      "extras": {
        "name": "Empty"
      },
      "children": [
        0,
        1,
        2,
        3,
        4,
        5,
        6,
        7,
        8
      ]
    },
    {
      "name": "asphera3",
      "children": [
        9
      ]
    }
  ],
  "bufferViews": [
    {
      "buffer": 0,
      "byteOffset": 0,
      "byteLength": 39276,
      "target": 34962,
      "byteStride": 12
    },
    {
      "buffer": 0,
      "byteOffset": 39276,
      "byteLength": 26184,
      "target": 34962,
      "byteStride": 8
    },
    {
      "buffer": 0,
      "byteOffset": 65460,
      "byteLength": 39276,
      "target": 34962,
      "byteStride": 12
    },
    {
      "buffer": 0,
      "byteOffset": 104736,
      "byteLength": 19584,
      "target": 34963
    },
    {
      "buffer": 0,
      "byteOffset": 124320,
      "byteLength": 71100,
      "target": 34962,
      "byteStride": 12
    },
    {
      "buffer": 0,
      "byteOffset": 195420,
      "byteLength": 47400,
      "target": 34962,
      "byteStride": 8
    },
    {
      "buffer": 0,
      "byteOffset": 242820,
      "byteLength": 71100,
      "target": 34962,
      "byteStride": 12
    },
    {
      "buffer": 0,
      "byteOffset": 313920,
      "byteLength": 53744,
      "target": 34963
    },
    {
      "buffer": 0,
      "byteOffset": 367664,
      "byteLength": 2136,
      "target": 34962,
      "byteStride": 12
    },
    {
      "buffer": 0,
      "byteOffset": 369800,
      "byteLength": 1424,
      "target": 34962,
      "byteStride": 8
    },
    {
      "buffer": 0,
      "byteOffset": 371224,
      "byteLength": 2136,
      "target": 34962,
      "byteStride": 12
    },
    {
      "buffer": 0,
      "byteOffset": 373360,
      "byteLength": 1584,
      "target": 34963
    },
    {
      "buffer": 0,
      "byteOffset": 374944,
      "byteLength": 22656,
      "target": 34962,
      "byteStride": 12
    },
    {
      "buffer": 0,
      "byteOffset": 397600,
      "byteLength": 15104,
      "target": 34962,
      "byteStride": 8
    },
    {
      "buffer": 0,
      "byteOffset": 412704,
      "byteLength": 22656,
      "target": 34962,
      "byteStride": 12
    },
    {
      "buffer": 0,
      "byteOffset": 435360,
      "byteLength": 19272,
      "target": 34963
    },
    {
      "buffer": 0,
      "byteOffset": 454632,
      "byteLength": 13392,
      "target": 34962,
      "byteStride": 12
    },
    {
      "buffer": 0,
      "byteOffset": 468024,
      "byteLength": 8928,
      "target": 34962,
      "byteStride": 8
    },
    {
      "buffer": 0,
      "byteOffset": 476952,
      "byteLength": 13392,
      "target": 34962,
      "byteStride": 12
    },
    {
      "buffer": 0,
      "byteOffset": 490344,
      "byteLength": 11232,
      "target": 34963
    },
    {
      "buffer": 0,
      "byteOffset": 501576,
      "byteLength": 9720,
      "target": 34962,
      "byteStride": 12
    },
    {
      "buffer": 0,
      "byteOffset": 511296,
      "byteLength": 6480,
      "target": 34962,
      "byteStride": 8
    },
    {
      "buffer": 0,
      "byteOffset": 517776,
      "byteLength": 9720,
      "target": 34962,
      "byteStride": 12
    },
    {
      "buffer": 0,
      "byteOffset": 527496,
      "byteLength": 8184,
      "target": 34963
    },
    {
      "buffer": 0,
      "byteOffset": 535680,
      "byteLength": 16920,
      "target": 34962,
      "byteStride": 12
    },
    {
      "buffer": 0,
      "byteOffset": 552600,
      "byteLength": 11280,
      "target": 34962,
      "byteStride": 8
    },
    {
      "buffer": 0,
      "byteOffset": 563880,
      "byteLength": 16920,
      "target": 34962,
      "byteStride": 12
    },
    {
      "buffer": 0,
      "byteOffset": 580800,
      "byteLength": 14256,
      "target": 34963
    },
    {
      "buffer": 0,
      "byteOffset": 595056,
      "byteLength": 9384,
      "target": 34962,
      "byteStride": 12
    },
    {
      "buffer": 0,
      "byteOffset": 604440,
      "byteLength": 6256,
      "target": 34962,
      "byteStride": 8
    },
    {
      "buffer": 0,
      "byteOffset": 610696,
      "byteLength": 9384,
      "target": 34962,
      "byteStride": 12
    },
    {
      "buffer": 0,
      "byteOffset": 620080,
      "byteLength": 7896,
      "target": 34963
    },
    {
      "buffer": 0,
      "byteOffset": 627976,
      "byteLength": 29520,
      "target": 34962,
      "byteStride": 12
    },
    {
      "buffer": 0,
      "byteOffset": 657496,
      "byteLength": 19680,
      "target": 34962,
      "byteStride": 8
    },
    {
      "buffer": 0,
      "byteOffset": 677176,
      "byteLength": 29520,
      "target": 34962,
      "byteStride": 12
    },
    {
      "buffer": 0,
      "byteOffset": 706696,
      "byteLength": 25056,
      "target": 34963
    },
    {
      "buffer": 0,
      "byteOffset": 731752,
      "byteLength": 580
    },
    {
      "buffer": 0,
      "byteOffset": 732332,
      "byteLength": 2320
    }
  ],
  "buffers": [
    {
      "byteLength": 734652,
      "uri": "data:application/octet-stream;base64,"
    }
  ],
  "accessors": [
    {
      "bufferView": 0,
      "componentType": 5126,
      "count": 3273,
      "max": [
        1.0243611335754395,
        0.5555702447891235,
        1.0243607759475708
      ],
      "min": [
        -1.0243605375289917,
        -1,
        -1.0243613719940186
      ],
      "type": "VEC3"
    },
    {
      "bufferView": 1,
      "componentType": 5126,
      "count": 3273,
      "max": [
        1,
        1
      ],
      "min": [
        0,
        0.31249988079071045
      ],
      "type": "VEC2"
    },
    {
      "bufferView": 2,
      "componentType": 5126,
      "count": 3273,
      "max": [
        1,
        1,
        1
      ],
      "min": [
        -1,
        -1,
        -1
      ],
      "type": "VEC3"
    },
    {
      "bufferView": 3,
      "componentType": 5123,
      "count": 9792,
      "max": [
        3272
      ],
      "min": [
        0
      ],
      "type": "SCALAR"
    },
    {
      "bufferView": 4,
      "componentType": 5126,
      "count": 5925,
      "max": [
        1.0412718057632446,
        1.0458240509033203,
        1.038184642791748
      ],
      "min": [
        -1.0412712097167969,
        -1.0458240509033203,
        -1.0412720441818237
      ],
      "type": "VEC3"
    },
    {
      "bufferView": 5,
      "componentType": 5126,
      "count": 5925,
      "max": [
        1.0000512599945068,
        1
      ],
      "min": [
        -0.000051281738706165925,
        0
      ],
      "type": "VEC2"
    },
    {
      "bufferView": 6,
      "componentType": 5126,
      "count": 5925,
      "max": [
        1,
        1,
        1
      ],
      "min": [
        -1,
        -1,
        -1
      ],
      "type": "VEC3"
    },
    {
      "bufferView": 7,
      "componentType": 5123,
      "count": 26871,
      "max": [
        5924
      ],
      "min": [
        0
      ],
      "type": "SCALAR"
    },
    {
      "bufferView": 8,
      "componentType": 5126,
      "count": 178,
      "max": [
        0.34735092520713806,
        0.04399999976158142,
        0.30900001525878906
      ],
      "min": [
        -0.34713059663772583,
        -0.04399999976158142,
        -0.39500004053115845
      ],
      "type": "VEC3"
    },
    {
      "bufferView": 9,
      "componentType": 5126,
      "count": 178,
      "max": [
        1,
        1
      ],
      "min": [
        0,
        0
      ],
      "type": "VEC2"
    },
    {
      "bufferView": 10,
      "componentType": 5126,
      "count": 178,
      "max": [
        0.8312000036239624,
        1,
        0.9765999913215637
      ],
      "min": [
        -0.8288000226020813,
        -1,
        -0.835099995136261
      ],
      "type": "VEC3"
    },
    {
      "bufferView": 11,
      "componentType": 5123,
      "count": 792,
      "max": [
        177
      ],
      "min": [
        0
      ],
      "type": "SCALAR"
    },
    {
      "bufferView": 12,
      "componentType": 5126,
      "count": 1888,
      "max": [
        0.1615154892206192,
        0.04399999976158142,
        0.3180041015148163
      ],
      "min": [
        -0.16050001978874207,
        -0.04399999976158142,
        -0.16700467467308044
      ],
      "type": "VEC3"
    },
    {
      "bufferView": 13,
      "componentType": 5126,
      "count": 1888,
      "max": [
        1,
        1
      ],
      "min": [
        0,
        0
      ],
      "type": "VEC2"
    },
    {
      "bufferView": 14,
      "componentType": 5126,
      "count": 1888,
      "max": [
        0.9969000220298767,
        1,
        0.9969000220298767
      ],
      "min": [
        -0.9961000084877014,
        -1,
        -0.9969000220298767
      ],
      "type": "VEC3"
    },
    {
      "bufferView": 15,
      "componentType": 5123,
      "count": 9636,
      "max": [
        1887
      ],
      "min": [
        0
      ],
      "type": "SCALAR"
    },
    {
      "bufferView": 16,
      "componentType": 5126,
      "count": 1116,
      "max": [
        0.22301381826400757,
        0.04399999976158142,
        0.5390000343322754
      ],
      "min": [
        -0.2019999921321869,
        -0.04399999976158142,
        -0.15800002217292786
      ],
      "type": "VEC3"
    },
    {
      "bufferView": 17,
      "componentType": 5126,
      "count": 1116,
      "max": [
        1,
        1
      ],
      "min": [
        0,
        0
      ],
      "type": "VEC2"
    },
    {
      "bufferView": 18,
      "componentType": 5126,
      "count": 1116,
      "max": [
        0.9969000220298767,
        1,
        0.9966999888420105
      ],
      "min": [
        -0.9969000220298767,
        -1,
        -0.9966999888420105
      ],
      "type": "VEC3"
    },
    {
      "bufferView": 19,
      "componentType": 5123,
      "count": 5616,
      "max": [
        1115
      ],
      "min": [
        0
      ],
      "type": "SCALAR"
    },
    {
      "bufferView": 20,
      "componentType": 5126,
      "count": 810,
      "max": [
        0.1980000138282776,
        0.04399999976158142,
        0.30900001525878906
      ],
      "min": [
        -0.1979999989271164,
        -0.04399999976158142,
        -0.39100003242492676
      ],
      "type": "VEC3"
    },
    {
      "bufferView": 21,
      "componentType": 5126,
      "count": 810,
      "max": [
        1,
        1
      ],
      "min": [
        0,
        0
      ],
      "type": "VEC2"
    },
    {
      "bufferView": 22,
      "componentType": 5126,
      "count": 810,
      "max": [
        0.9966999888420105,
        1,
        0.9968000054359436
      ],
      "min": [
        -0.9966999888420105,
        -1,
        -0.9969000220298767
      ],
      "type": "VEC3"
    },
    {
      "bufferView": 23,
      "componentType": 5123,
      "count": 4092,
      "max": [
        809
      ],
      "min": [
        0
      ],
      "type": "SCALAR"
    },
    {
      "bufferView": 24,
      "componentType": 5126,
      "count": 1410,
      "max": [
        0.21586129069328308,
        0.04399999976158142,
        0.3180060088634491
      ],
      "min": [
        -0.20751261711120605,
        -0.04399999976158142,
        -0.16701650619506836
      ],
      "type": "VEC3"
    },
    {
      "bufferView": 25,
      "componentType": 5126,
      "count": 1410,
      "max": [
        1,
        1
      ],
      "min": [
        0,
        0
      ],
      "type": "VEC2"
    },
    {
      "bufferView": 26,
      "componentType": 5126,
      "count": 1410,
      "max": [
        0.9934999942779541,
        1,
        0.9969000220298767
      ],
      "min": [
        -0.9969000220298767,
        -1,
        -0.9969000220298767
      ],
      "type": "VEC3"
    },
    {
      "bufferView": 27,
      "componentType": 5123,
      "count": 7128,
      "max": [
        1409
      ],
      "min": [
        0
      ],
      "type": "SCALAR"
    },
    {
      "bufferView": 28,
      "componentType": 5126,
      "count": 782,
      "max": [
        0.21055112779140472,
        0.04399999976158142,
        0.30900001525878906
      ],
      "min": [
        -0.1380000114440918,
        -0.04399999976158142,
        -0.1670117825269699
      ],
      "type": "VEC3"
    },
    {
      "bufferView": 29,
      "componentType": 5126,
      "count": 782,
      "max": [
        1,
        1
      ],
      "min": [
        0,
        0
      ],
      "type": "VEC2"
    },
    {
      "bufferView": 30,
      "componentType": 5126,
      "count": 782,
      "max": [
        0.9965999722480774,
        1,
        0.9968000054359436
      ],
      "min": [
        -0.9047999978065491,
        -1,
        -0.9968000054359436
      ],
      "type": "VEC3"
    },
    {
      "bufferView": 31,
      "componentType": 5123,
      "count": 3948,
      "max": [
        781
      ],
      "min": [
        0
      ],
      "type": "SCALAR"
    },
    {
      "bufferView": 32,
      "componentType": 5126,
      "count": 2460,
      "max": [
        0.20650000870227814,
        0.04399999976158142,
        0.31800907850265503
      ],
      "min": [
        -0.196522057056427,
        -0.04399999976158142,
        -0.16700512170791626
      ],
      "type": "VEC3"
    },
    {
      "bufferView": 33,
      "componentType": 5126,
      "count": 2460,
      "max": [
        1,
        1
      ],
      "min": [
        0,
        0
      ],
      "type": "VEC2"
    },
    {
      "bufferView": 34,
      "componentType": 5126,
      "count": 2460,
      "max": [
        0.9968000054359436,
        1,
        0.9969000220298767
      ],
      "min": [
        -0.9969000220298767,
        -1,
        -0.9969000220298767
      ],
      "type": "VEC3"
    },
    {
      "bufferView": 35,
      "componentType": 5123,
      "count": 12528,
      "max": [
        2459
      ],
      "min": [
        0
      ],
      "type": "SCALAR"
    },
    {
      "bufferView": 36,
      "componentType": 5126,
      "count": 145,
      "max": [
        6.041666507720947
      ],
      "min": [
        0.0416666679084301
      ],
      "type": "SCALAR"
    },
    {
      "bufferView": 37,
      "componentType": 5126,
      "count": 145,
      "max": [
        0,
        0.9997620582580566,
        0,
        1
      ],
      "min": [
        0,
        -1,
        0,
        7.549790126404332e-8
      ],
      "type": "VEC4"
    }
  ],
  "materials": [
    {
      "pbrMetallicRoughness": {
        "baseColorFactor": [
          0.36625259558833256,
          0.46778379610254284,
          0.5209955731953768,
          1
        ],
        "metallicFactor": 1,
        "roughnessFactor": 1
      },
      "doubleSided": true,
      "name": "silver"
    },
    {
      "pbrMetallicRoughness": {
        "baseColorFactor": [
          0.3665843904018402,
          0.4667239189147949,
          0.5231191515922546,
          1
        ],
        "metallicFactor": 1,
        "roughnessFactor": 1
      },
      "doubleSided": true,
      "name": "silver"
    },
    {
      "pbrMetallicRoughness": {
        "baseColorFactor": [
          0.3665843904018402,
          0.4667239189147949,
          0.5231191515922546,
          1
        ],
        "metallicFactor": 1,
        "roughnessFactor": 1
      },
      "doubleSided": true,
      "name": "silver"
    },
    {
      "pbrMetallicRoughness": {
        "baseColorFactor": [
          0.3665843904018402,
          0.4667239189147949,
          0.5231191515922546,
          1
        ],
        "metallicFactor": 1,
        "roughnessFactor": 1
      },
      "doubleSided": true,
      "name": "silver"
    },
    {
      "pbrMetallicRoughness": {
        "baseColorFactor": [
          0.3665843904018402,
          0.4667239189147949,
          0.5231191515922546,
          1
        ],
        "metallicFactor": 1,
        "roughnessFactor": 1
      },
      "doubleSided": true,
      "name": "silver"
    },
    {
      "pbrMetallicRoughness": {
        "baseColorFactor": [
          0.3665843904018402,
          0.4667239189147949,
          0.5231191515922546,
          1
        ],
        "metallicFactor": 1,
        "roughnessFactor": 1
      },
      "doubleSided": true,
      "name": "silver"
    },
    {
      "pbrMetallicRoughness": {
        "baseColorFactor": [
          0.3665843904018402,
          0.4667239189147949,
          0.5231191515922546,
          1
        ],
        "metallicFactor": 1,
        "roughnessFactor": 1
      },
      "doubleSided": true,
      "name": "silver"
    },
    {
      "pbrMetallicRoughness": {
        "baseColorFactor": [
          0.3665843904018402,
          0.4667239189147949,
          0.5231191515922546,
          1
        ],
        "metallicFactor": 1,
        "roughnessFactor": 1
      },
      "doubleSided": true,
      "name": "silver"
    },
    {
      "pbrMetallicRoughness": {
        "baseColorFactor": [
          0.3665843904018402,
          0.4667239189147949,
          0.5231191515922546,
          1
        ],
        "metallicFactor": 1,
        "roughnessFactor": 1
      },
      "doubleSided": true,
      "name": "silver"
    }
  ],
  "meshes": [
    {
      "primitives": [
        {
          "mode": 4,
          "attributes": {
            "POSITION": 0,
            "TEXCOORD_0": 1,
            "NORMAL": 2
          },
          "indices": 3,
          "material": 0
        }
      ]
    },
    {
      "primitives": [
        {
          "mode": 4,
          "attributes": {
            "POSITION": 4,
            "TEXCOORD_0": 5,
            "NORMAL": 6
          },
          "indices": 7,
          "material": 1
        }
      ]
    },
    {
      "primitives": [
        {
          "mode": 4,
          "attributes": {
            "POSITION": 8,
            "TEXCOORD_0": 9,
            "NORMAL": 10
          },
          "indices": 11,
          "material": 2
        }
      ]
    },
    {
      "primitives": [
        {
          "mode": 4,
          "attributes": {
            "POSITION": 12,
            "TEXCOORD_0": 13,
            "NORMAL": 14
          },
          "indices": 15,
          "material": 3
        }
      ]
    },
    {
      "primitives": [
        {
          "mode": 4,
          "attributes": {
            "POSITION": 16,
            "TEXCOORD_0": 17,
            "NORMAL": 18
          },
          "indices": 19,
          "material": 4
        }
      ]
    },
    {
      "primitives": [
        {
          "mode": 4,
          "attributes": {
            "POSITION": 20,
            "TEXCOORD_0": 21,
            "NORMAL": 22
          },
          "indices": 23,
          "material": 5
        }
      ]
    },
    {
      "primitives": [
        {
          "mode": 4,
          "attributes": {
            "POSITION": 24,
            "TEXCOORD_0": 25,
            "NORMAL": 26
          },
          "indices": 27,
          "material": 6
        }
      ]
    },
    {
      "primitives": [
        {
          "mode": 4,
          "attributes": {
            "POSITION": 28,
            "TEXCOORD_0": 29,
            "NORMAL": 30
          },
          "indices": 31,
          "material": 7
        }
      ]
    },
    {
      "primitives": [
        {
          "mode": 4,
          "attributes": {
            "POSITION": 32,
            "TEXCOORD_0": 33,
            "NORMAL": 34
          },
          "indices": 35,
          "material": 8
        }
      ]
    }
  ],
  "animations": [
    {
      "name": "rotate360",
      "samplers": [
        {
          "input": 36,
          "output": 37,
          "interpolation": "LINEAR"
        }
      ],
      "channels": [
        {
          "sampler": 0,
          "target": {
            "node": 9,
            "path": "rotation"
          }
        }
      ]
    }
  ]
}